# xmcd
#
# Track frame offsets: 
#        183
#        12068
#        24158
#        39545
#        52550
#        64530
#        77985
#        90470
#        104288
#        115755
#        127913
#        141480
#        153938
#        168443
#        185980
#        200048
#        214425
#        226458
#
# Disc length: 3183 seconds
#
# Revision: 3
# Processed by: cddbd v1.5.2PL0 Copyright (c) Steve Scherf et al.
# Submitted via: ExactAudioCopyFreeDBPlugin 1.0
#
DISCID=ed0c6d12
DTITLE=Little Milton - Stand By Me
DYEAR=1900
DGENRE=Blues
TTITLE0=Losing Hand
TTITLE1=Life Is Like That
TTITLE2=Blind Man
TTITLE3=Stand By Me
TTITLE4=We're Gonna Make it
TTITLE5=Who's Cheating Who
TTITLE6=You're Welcome To The Club
TTITLE7=I'm Gonna Move To The Outskirts Of Town
TTITLE8=Can't Hold Back The Tears
TTITLE9=Grits Ain't Groceries (All Around The World)
TTITLE10=Let's Get Together
TTITLE11=Your Precious Love
TTITLE12=Kansas City
TTITLE13=Things I Used To Do
TTITLE14=If Walls Could Talk
TTITLE15=Blues Gett off My Shoulder
TTITLE16=Good to Me As I Am To You
TTITLE17=Poor Man' Song
EXTD=
EXTT0=
EXTT1=
EXTT2=
EXTT3=
EXTT4=
EXTT5=
EXTT6=
EXTT7=
EXTT8=
EXTT9=
EXTT10=
EXTT11=
EXTT12=
EXTT13=
EXTT14=
EXTT15=
EXTT16=
EXTT17=
PLAYORDER=
